<svg width="24" height="24" viewBox="0 0 24 24" fill="none" xmlns="http://www.w3.org/2000/svg">
<path d="M21.0938 3.39577V20.3649H22.6562C22.8635 20.3649 23.0622 20.4542 23.2087 20.6134C23.3552 20.7725 23.4375 20.9883 23.4375 21.2133V22.9102C23.4375 23.1352 23.3552 23.3511 23.2087 23.5102C23.0622 23.6693 22.8635 23.7587 22.6562 23.7587H14.8438C14.6365 23.7587 14.4378 23.6693 14.2913 23.5102C14.1448 23.3511 14.0625 23.1352 14.0625 22.9102V21.2133C14.0625 20.9883 14.1448 20.7725 14.2913 20.6134C14.4378 20.4542 14.6365 20.3649 14.8438 20.3649H16.4062V13.5772H7.03125V20.3649H8.59375C8.80095 20.3649 8.99966 20.4542 9.14618 20.6134C9.29269 20.7725 9.375 20.9883 9.375 21.2133V22.9102C9.375 23.1352 9.29269 23.3511 9.14618 23.5102C8.99966 23.6693 8.80095 23.7587 8.59375 23.7587H0.78125C0.57405 23.7587 0.375336 23.6693 0.228823 23.5102C0.08231 23.3511 0 23.1352 0 22.9102V21.2133C0 20.9883 0.08231 20.7725 0.228823 20.6134C0.375336 20.4542 0.57405 20.3649 0.78125 20.3649H2.34375V3.39577H0.78125C0.57405 3.39577 0.375336 3.30638 0.228823 3.14726C0.08231 2.98815 0 2.77234 0 2.54732V0.850407C0 0.625383 0.08231 0.409576 0.228823 0.25046C0.375336 0.0913436 0.57405 0.00195313 0.78125 0.00195312H8.59375C8.80095 0.00195313 8.99966 0.0913436 9.14618 0.25046C9.29269 0.409576 9.375 0.625383 9.375 0.850407V2.54732C9.375 2.77234 9.29269 2.98815 9.14618 3.14726C8.99966 3.30638 8.80095 3.39577 8.59375 3.39577H7.03125V10.1834H16.4062V3.39577H14.8438C14.6365 3.39577 14.4378 3.30638 14.2913 3.14726C14.1448 2.98815 14.0625 2.77234 14.0625 2.54732V0.850407C14.0625 0.625383 14.1448 0.409576 14.2913 0.25046C14.4378 0.0913436 14.6365 0.00195313 14.8438 0.00195312H22.6562C22.8635 0.00195313 23.0622 0.0913436 23.2087 0.25046C23.3552 0.409576 23.4375 0.625383 23.4375 0.850407V2.54732C23.4375 2.77234 23.3552 2.98815 23.2087 3.14726C23.0622 3.30638 22.8635 3.39577 22.6562 3.39577H21.0938Z" fill="white"/>
</svg>
