<svg width="19" height="15" viewBox="0 0 19 15" fill="none" xmlns="http://www.w3.org/2000/svg">
<path d="M17.1772 4.38137H10.0877C11.2745 3.6943 11.8991 2.07025 11.4307 0.883481C11.3994 0.727312 11.3057 0.602399 11.212 0.44623C10.8997 -0.0222391 10.4937 0.00897983 10.3688 0.00897983C10.1814 -0.0222393 10.1502 0.00897992 9.65047 0.414975C9.02583 0.977138 7.71412 2.13268 6.4024 2.85102C6.33993 2.91349 4.96578 3.75673 3.93514 4.69367H3.12312C1.40541 4.69371 0 6.09912 0 7.81683V10.9399C0 12.2829 1.12433 13.6883 2.43604 14.0006C2.81082 14.0943 3.0919 14.188 3.21681 14.3129C3.59159 14.6252 4.46605 15 5.62163 15H10.6186C11.4931 15 12.1802 14.3129 12.1802 13.4384C12.1802 13.0949 12.0553 12.7513 11.8679 12.5015H12.1802C13.0547 12.5015 13.7418 11.8144 13.7418 10.9399C13.7418 10.5964 13.6169 10.2528 13.4295 10.003C14.3039 10.003 14.9911 9.31589 14.9911 8.44139C14.9911 8.09784 14.8661 7.75432 14.6788 7.50445H17.1773C18.0517 7.50445 18.7389 6.81738 18.7389 5.94288C18.7389 5.06838 18.0517 4.38137 17.1772 4.38137ZM17.1772 6.87989H12.1802H8.43245C8.24506 6.87989 8.12015 7.0048 8.12015 7.19219C8.12015 7.37958 8.24506 7.50449 8.43245 7.50449H12.1802H13.4294C13.9604 7.50449 14.3664 7.91048 14.3664 8.44143C14.3664 8.97237 13.9604 9.37837 13.4294 9.37837H12.1802H8.74475C8.55736 9.37837 8.43245 9.50328 8.43245 9.69067C8.43245 9.87806 8.55736 10.003 8.74475 10.003H12.1802C12.7111 10.003 13.1171 10.409 13.1171 10.9399C13.1171 11.4709 12.7111 11.8768 12.1802 11.8768H10.6186H8.43245C8.24506 11.8768 8.12015 12.0018 8.12015 12.1891C8.12015 12.3765 8.24506 12.5014 8.43245 12.5014H10.6186C11.1496 12.5014 11.5556 12.9074 11.5556 13.4384C11.5556 13.9693 11.1496 14.3753 10.6186 14.3753H5.62163C4.75196 14.3753 4.13391 14.124 3.81846 13.9301C3.64806 13.7324 3.56359 13.4087 3.43542 12.9387L3.4042 12.7513C3.37298 12.5951 3.18559 12.5014 3.02942 12.5327C2.87325 12.564 2.77956 12.7513 2.81082 12.9075L2.87329 13.0636C2.91121 13.2027 2.94792 13.3416 2.98843 13.477C2.86597 13.4382 2.73345 13.4042 2.59221 13.3759C1.53036 13.1573 0.624638 12.0018 0.624638 10.9399V7.81679C0.624638 6.4426 1.74896 5.31827 3.12315 5.31827H3.42912C3.37649 5.3895 3.32632 5.46171 3.27932 5.53688C3.15441 5.72427 3.06072 5.88044 2.90455 6.06783C2.77963 6.19274 2.81085 6.38013 2.93577 6.50508C2.99824 6.5363 3.06068 6.56755 3.12315 6.56755C3.21685 6.56755 3.31054 6.53633 3.37302 6.44264C3.5604 6.25525 3.68532 6.06786 3.81027 5.88047C3.96486 5.66403 4.11957 5.44758 4.3045 5.23113C5.27273 4.30305 6.71478 3.41321 6.71478 3.41321C8.05771 2.66366 9.40068 1.47686 10.0565 0.9147C10.1815 0.821006 10.3376 0.696093 10.4001 0.633618C10.4938 0.633618 10.5563 0.633618 10.6812 0.821006C10.7437 0.945919 10.8061 1.03961 10.8373 1.13331C11.1184 1.94533 10.7437 3.28827 9.71302 3.88165L8.93283 4.40176C8.92211 4.40483 8.9115 4.40838 8.90099 4.41256L8.27635 4.72486C8.15144 4.78733 8.08897 4.97472 8.15144 5.13085C8.21392 5.28698 8.495 5.31824 8.55744 5.25576L9.05712 5.0059H17.1773C17.7082 5.0059 18.1142 5.4119 18.1142 5.94284C18.1141 6.47389 17.7081 6.87989 17.1772 6.87989Z" fill="#777777"/>
</svg>
